<svg xmlns="http://www.w3.org/2000/svg" viewBox="0 0 512 512" role="img" aria-labelledby="title desc">
  <title id="title">AI Gym Coach Logo</title>
  <desc id="desc">Circular logo with a dark navy background, lime and cyan accents, and a stylized gym bar combined with an AI pulse line.</desc>
  <defs>
    <radialGradient id="bg" cx="30%" cy="22%" r="78%">
      <stop offset="0%" stop-color="#191f31"/>
      <stop offset="58%" stop-color="#0c1324"/>
      <stop offset="100%" stop-color="#070d1f"/>
    </radialGradient>
    <linearGradient id="ring" x1="92" y1="90" x2="420" y2="420" gradientUnits="userSpaceOnUse">
      <stop offset="0%" stop-color="#ccff80"/>
      <stop offset="48%" stop-color="#5de6ff"/>
      <stop offset="100%" stop-color="#a3e635"/>
    </linearGradient>
    <linearGradient id="bar" x1="120" y1="256" x2="392" y2="256" gradientUnits="userSpaceOnUse">
      <stop offset="0%" stop-color="#ccff80"/>
      <stop offset="50%" stop-color="#dce1fb"/>
      <stop offset="100%" stop-color="#5de6ff"/>
    </linearGradient>
    <filter id="glow" x="-20%" y="-20%" width="140%" height="140%">
      <feGaussianBlur stdDeviation="7" result="blur"/>
      <feColorMatrix in="blur" type="matrix" values="1 0 0 0 0  0 1 0 0 0  0 0 1 0 0  0 0 0 0.75 0" result="soft"/>
      <feMerge>
        <feMergeNode in="soft"/>
        <feMergeNode in="SourceGraphic"/>
      </feMerge>
    </filter>
  </defs>

  <circle cx="256" cy="256" r="256" fill="url(#bg)"/>
  <circle cx="256" cy="256" r="240" fill="none" stroke="url(#ring)" stroke-width="18" opacity="0.95"/>
  <circle cx="256" cy="256" r="204" fill="none" stroke="#dce1fb" stroke-width="2.5" opacity="0.08"/>

  <g opacity="0.16">
    <path d="M164 126H348M118 192H394M118 320H394M164 386H348" stroke="#dce1fb" stroke-width="3" stroke-linecap="round"/>
    <path d="M126 164V348M192 118V394M320 118V394M386 164V348" stroke="#dce1fb" stroke-width="3" stroke-linecap="round"/>
  </g>

  <g filter="url(#glow)">
    <circle cx="126" cy="256" r="28" fill="#0c1324" stroke="#5de6ff" stroke-width="14"/>
    <circle cx="386" cy="256" r="28" fill="#0c1324" stroke="#ccff80" stroke-width="14"/>
    <rect x="146" y="242" width="220" height="28" rx="14" fill="url(#bar)"/>

    <path d="M198 286C212 262 226 250 242 250C252 250 258 254 266 262C274 270 282 274 294 274C312 274 326 266 342 246"
          fill="none" stroke="#5de6ff" stroke-width="16" stroke-linecap="round" stroke-linejoin="round"/>

    <path d="M202 214C214 224 226 232 240 232C252 232 260 226 268 216C276 206 286 202 298 202C312 202 326 210 338 224"
          fill="none" stroke="#ccff80" stroke-width="10" stroke-linecap="round" stroke-linejoin="round" opacity="0.9"/>

    <circle cx="256" cy="256" r="42" fill="#0c1324" stroke="#dce1fb" stroke-opacity="0.14" stroke-width="2"/>
    <path d="M234 288L256 224L278 288" fill="none" stroke="#ccff80" stroke-width="18" stroke-linecap="round" stroke-linejoin="round"/>
    <path d="M238 260H274" fill="none" stroke="#5de6ff" stroke-width="14" stroke-linecap="round"/>
  </g>

  <circle cx="256" cy="256" r="232" fill="none" stroke="#ffffff" stroke-opacity="0.04" stroke-width="4"/>
</svg>